<mxfile host="app.diagrams.net" agent="Mozilla/5.0 (Windows NT 10.0; Win64; x64) AppleWebKit/537.36 (KHTML, like Gecko) Chrome/128.0.0.0 YaBrowser/24.10.0.0 Safari/537.36" version="24.8.4">
  <diagram name="Страница — 1" id="Iu5KM-74qpffGwmemayy">
    <mxGraphModel dx="1728" dy="939" grid="1" gridSize="10" guides="1" tooltips="1" connect="1" arrows="1" fold="1" page="1" pageScale="1" pageWidth="827" pageHeight="1169" math="0" shadow="0">
      <root>
        <mxCell id="0" />
        <mxCell id="1" parent="0" />
        <mxCell id="rcyVve_4SrEJthAKfi-y-1" value="View" style="swimlane;whiteSpace=wrap;html=1;" vertex="1" parent="1">
          <mxGeometry x="80" y="80" width="130" height="280" as="geometry" />
        </mxCell>
        <mxCell id="rcyVve_4SrEJthAKfi-y-4" value="" style="endArrow=classic;html=1;rounded=0;entryX=0;entryY=0;entryDx=0;entryDy=0;" edge="1" parent="rcyVve_4SrEJthAKfi-y-1" target="rcyVve_4SrEJthAKfi-y-6">
          <mxGeometry width="50" height="50" relative="1" as="geometry">
            <mxPoint y="50" as="sourcePoint" />
            <mxPoint x="150" y="50" as="targetPoint" />
          </mxGeometry>
        </mxCell>
        <mxCell id="rcyVve_4SrEJthAKfi-y-13" style="edgeStyle=orthogonalEdgeStyle;rounded=0;orthogonalLoop=1;jettySize=auto;html=1;" edge="1" parent="rcyVve_4SrEJthAKfi-y-1" source="rcyVve_4SrEJthAKfi-y-7">
          <mxGeometry relative="1" as="geometry">
            <mxPoint y="85" as="targetPoint" />
          </mxGeometry>
        </mxCell>
        <mxCell id="rcyVve_4SrEJthAKfi-y-7" value="main menu" style="rounded=0;whiteSpace=wrap;html=1;" vertex="1" parent="rcyVve_4SrEJthAKfi-y-1">
          <mxGeometry x="32.5" y="70" width="65" height="30" as="geometry" />
        </mxCell>
        <mxCell id="rcyVve_4SrEJthAKfi-y-12" value="" style="endArrow=classic;html=1;rounded=0;entryX=1;entryY=0.5;entryDx=0;entryDy=0;" edge="1" parent="rcyVve_4SrEJthAKfi-y-1" target="rcyVve_4SrEJthAKfi-y-7">
          <mxGeometry width="50" height="50" relative="1" as="geometry">
            <mxPoint x="160" y="85" as="sourcePoint" />
            <mxPoint x="97.5" y="84.86000000000001" as="targetPoint" />
          </mxGeometry>
        </mxCell>
        <mxCell id="rcyVve_4SrEJthAKfi-y-15" value="" style="endArrow=classic;html=1;rounded=0;entryX=0;entryY=0.45;entryDx=0;entryDy=0;entryPerimeter=0;" edge="1" parent="rcyVve_4SrEJthAKfi-y-1" target="rcyVve_4SrEJthAKfi-y-6">
          <mxGeometry width="50" height="50" relative="1" as="geometry">
            <mxPoint y="140" as="sourcePoint" />
            <mxPoint x="50" y="90" as="targetPoint" />
          </mxGeometry>
        </mxCell>
        <mxCell id="rcyVve_4SrEJthAKfi-y-16" value="&lt;font style=&quot;font-size: 10px;&quot;&gt;выбор пункта main menu&lt;/font&gt;" style="text;html=1;align=center;verticalAlign=middle;resizable=0;points=[];autosize=1;strokeColor=none;fillColor=none;" vertex="1" parent="rcyVve_4SrEJthAKfi-y-1">
          <mxGeometry y="118" width="140" height="30" as="geometry" />
        </mxCell>
        <mxCell id="rcyVve_4SrEJthAKfi-y-19" value="" style="endArrow=classic;html=1;rounded=0;exitX=0;exitY=0.75;exitDx=0;exitDy=0;dashed=1;" edge="1" parent="rcyVve_4SrEJthAKfi-y-1" source="rcyVve_4SrEJthAKfi-y-6">
          <mxGeometry width="50" height="50" relative="1" as="geometry">
            <mxPoint x="70" y="240" as="sourcePoint" />
            <mxPoint y="200" as="targetPoint" />
          </mxGeometry>
        </mxCell>
        <mxCell id="rcyVve_4SrEJthAKfi-y-21" value="выход из системы" style="text;html=1;align=center;verticalAlign=middle;resizable=0;points=[];autosize=1;strokeColor=none;fillColor=none;" vertex="1" parent="rcyVve_4SrEJthAKfi-y-1">
          <mxGeometry x="10" y="178" width="120" height="30" as="geometry" />
        </mxCell>
        <mxCell id="rcyVve_4SrEJthAKfi-y-2" value="Controller" style="swimlane;whiteSpace=wrap;html=1;" vertex="1" parent="1">
          <mxGeometry x="210" y="80" width="120" height="280" as="geometry" />
        </mxCell>
        <mxCell id="rcyVve_4SrEJthAKfi-y-6" value="" style="rounded=0;whiteSpace=wrap;html=1;" vertex="1" parent="rcyVve_4SrEJthAKfi-y-2">
          <mxGeometry x="30" y="50" width="60" height="200" as="geometry" />
        </mxCell>
        <mxCell id="rcyVve_4SrEJthAKfi-y-3" value="Model" style="swimlane;whiteSpace=wrap;html=1;" vertex="1" parent="1">
          <mxGeometry x="330" y="80" width="140" height="280" as="geometry" />
        </mxCell>
        <mxCell id="rcyVve_4SrEJthAKfi-y-17" value="выбор пункта main menu" style="rounded=0;whiteSpace=wrap;html=1;" vertex="1" parent="rcyVve_4SrEJthAKfi-y-3">
          <mxGeometry x="20" y="120" width="100" height="40" as="geometry" />
        </mxCell>
        <mxCell id="rcyVve_4SrEJthAKfi-y-14" value="html" style="text;html=1;align=center;verticalAlign=middle;resizable=0;points=[];autosize=1;strokeColor=none;fillColor=none;" vertex="1" parent="1">
          <mxGeometry x="70" y="140" width="50" height="30" as="geometry" />
        </mxCell>
        <mxCell id="rcyVve_4SrEJthAKfi-y-18" value="" style="endArrow=classic;html=1;rounded=0;entryX=0;entryY=0.5;entryDx=0;entryDy=0;exitX=1;exitY=0.45;exitDx=0;exitDy=0;exitPerimeter=0;" edge="1" parent="1" source="rcyVve_4SrEJthAKfi-y-6" target="rcyVve_4SrEJthAKfi-y-17">
          <mxGeometry width="50" height="50" relative="1" as="geometry">
            <mxPoint x="290" y="270" as="sourcePoint" />
            <mxPoint x="340" y="220" as="targetPoint" />
          </mxGeometry>
        </mxCell>
        <mxCell id="rcyVve_4SrEJthAKfi-y-20" value="" style="shape=umlActor;verticalLabelPosition=bottom;verticalAlign=top;html=1;outlineConnect=0;" vertex="1" parent="1">
          <mxGeometry x="40" y="40" width="20" height="40" as="geometry" />
        </mxCell>
      </root>
    </mxGraphModel>
  </diagram>
</mxfile>
